<svg width="30" height="32" viewBox="0 0 30 32" fill="none" xmlns="http://www.w3.org/2000/svg">
<path d="M26.6587 18.4943C26.7723 18.7748 26.8755 19.0101 26.9683 19.2496C27.0876 19.5574 27.2787 19.6916 27.6245 19.7114C28.5005 19.7618 29.0502 20.2908 29.1734 21.1206C29.2811 21.8465 28.8395 22.588 28.1381 22.8585C27.4005 23.1431 26.7109 22.8966 26.2275 22.1757C26.002 21.8394 25.0325 21.6252 24.7344 21.857C24.5656 21.9883 24.4901 22.1757 24.5982 22.3829C24.8402 22.8465 25.0162 23.3117 25.6888 23.3701C26.6475 23.4533 27.1205 24.1033 27.1021 25.0683C27.0862 25.9011 26.5541 26.5131 25.7084 26.6215C25.0795 26.7021 24.5512 26.4662 24.2245 25.9041C24.0252 25.5612 23.7831 25.4572 23.4166 25.4891C22.4302 25.5748 21.4733 25.7938 20.5356 26.1109C20.3083 26.1878 20.1447 26.3617 19.9751 26.5245C19.465 27.0141 19.0275 27.57 18.5836 28.1206C18.2171 28.5753 17.9438 28.9751 18.3059 29.6401C18.6412 30.2558 18.308 31.0879 17.7596 31.4835C17.1351 31.9341 16.3845 31.9137 15.8282 31.4312C15.256 30.9349 15.0847 30.16 15.3863 29.4319C15.5826 28.9577 15.3793 28.1447 14.996 27.8581C14.8748 27.7675 14.7453 27.7532 14.6125 27.8074C14.252 27.9544 13.9045 28.9665 14.0825 29.3397C14.4375 30.084 14.2986 30.9309 13.7444 31.4026C13.129 31.9263 12.3356 31.9429 11.7152 31.4451C11.1609 31.0002 10.9153 30.1091 11.2725 29.457C11.5138 29.0163 11.4159 28.7246 11.1454 28.3963C10.9707 28.1843 10.7943 27.9701 10.6488 27.7371C9.5791 26.0242 7.89644 25.633 6.09383 25.4867C5.75917 25.4595 5.52801 25.5291 5.32678 25.8584C4.87592 26.5963 4.10852 26.8143 3.35872 26.4878C2.6538 26.1808 2.2961 25.4583 2.43851 24.6291C2.56152 23.9128 3.16931 23.4209 3.99553 23.3689C4.37973 23.3447 5.02663 22.5632 4.98063 22.1724C4.96374 22.0288 4.89422 21.9109 4.76858 21.8349C4.42337 21.626 3.51899 21.8474 3.28217 22.1988C2.81984 22.8848 2.07209 23.1405 1.35648 22.8571C0.712855 22.6023 0.254844 21.827 0.345412 21.1456C0.454222 20.3269 1.03523 19.7518 1.87998 19.7142C2.25301 19.6976 2.43277 19.5388 2.57653 19.2192C2.95088 18.3871 3.22591 17.5203 3.44417 16.6356C3.53446 16.2696 3.51621 15.8861 3.39889 15.5179C3.20089 14.8966 3.00678 14.274 2.80312 13.6547C2.60685 13.0578 2.39358 12.5764 1.59791 12.5555C0.874138 12.5366 0.382246 11.8216 0.338762 11.0673C0.29777 10.3562 0.717311 9.7203 1.40031 9.45835C2.0393 9.21326 2.85748 9.39682 3.19004 10.0262C3.54419 10.6965 4.0807 10.5119 4.58941 10.5414C4.7845 10.5526 4.90984 10.408 4.96287 10.2224C5.07593 9.82677 4.43127 8.96584 4.01391 8.94615C3.06764 8.90149 2.47027 8.35121 2.42514 7.48262C2.37525 6.52223 2.86041 5.86942 3.77778 5.71746C4.40722 5.6132 4.93845 5.84529 5.26771 6.40561C5.47943 6.7659 5.72617 6.8783 6.12099 6.84284C7.06917 6.75767 7.98849 6.54946 8.89166 6.25198C9.1966 6.15155 9.42688 5.9363 9.64682 5.71327C10.1287 5.22457 10.5712 4.70043 10.9884 4.15127C11.3232 3.71068 11.547 3.33153 11.2348 2.71855C10.8946 2.05053 11.2012 1.24797 11.7881 0.826034C12.3644 0.41161 13.0841 0.418626 13.6276 0.843971C14.2266 1.31274 14.5089 2.13457 14.1505 2.80503C13.8194 3.42441 14.1249 3.83047 14.406 4.26646C14.6095 4.58191 14.9077 4.58632 15.1117 4.26287C15.3953 3.81295 15.7215 3.40907 15.3644 2.76423C15.0082 2.12093 15.315 1.26272 15.8689 0.851113C16.4852 0.393177 17.2651 0.418827 17.8565 0.916489C18.3845 1.36081 18.5897 2.20175 18.2447 2.8614C18.0334 3.26534 18.0758 3.55476 18.3428 3.87659C18.7061 4.31463 19.064 4.75813 19.4088 5.21161C20.5167 6.66864 22.1416 6.67455 23.7105 6.83819C23.9724 6.86551 24.0599 6.6499 24.1824 6.46769C24.666 5.74875 25.4125 5.51701 26.1599 5.83829C26.8734 6.14496 27.229 6.8537 27.0896 7.69141C26.9698 8.41165 26.3828 8.91294 25.6075 8.95709C25.1719 8.9819 24.5235 9.71142 24.5535 10.1466C24.5637 10.2936 24.6333 10.4107 24.7565 10.4882C25.0833 10.6937 25.9802 10.4885 26.2079 10.1578C26.708 9.43172 27.4413 9.1791 28.1754 9.48004C28.8516 9.75727 29.2723 10.4722 29.1775 11.183C29.0644 12.0314 28.5125 12.5536 27.5894 12.6181C27.2679 12.6406 27.0988 12.7764 26.9746 13.0547C26.5869 13.9237 26.2898 14.8262 26.0766 15.753C25.8982 16.5285 26.2637 17.2298 26.4603 17.9499C26.507 18.1211 26.5818 18.2842 26.6587 18.4943ZM10.3092 23.7628C10.2931 23.9194 10.1184 24.0551 10.2492 24.2808C10.9587 23.5246 11.5013 22.6792 12.1013 21.8834C12.335 21.5735 12.5145 21.5077 12.865 21.7112C14.107 22.4323 15.3797 22.4182 16.624 21.7207C16.9712 21.526 17.176 21.5572 17.3986 21.8741C17.7039 22.3085 18.0307 22.7273 18.3551 23.1472C18.6485 23.527 18.9511 23.8994 19.2496 24.2751C19.2899 24.249 19.3301 24.223 19.3704 24.1969C19.0124 23.264 18.6726 22.323 18.2879 21.4019C18.1262 21.0147 18.1841 20.8019 18.538 20.5815C19.7579 19.822 20.3569 18.6735 20.4056 17.2245C20.4173 16.876 20.5287 16.7189 20.8724 16.7054C21.141 16.6949 21.4081 16.6377 21.6752 16.5964C22.5165 16.4666 23.3575 16.3346 24.1985 16.2034C23.1206 15.957 22.0565 15.7684 20.9853 15.6449C20.5387 15.5935 20.4088 15.4227 20.4011 14.9761C20.3821 13.8708 19.9082 12.966 19.1606 12.1802C18.8466 11.8502 18.1822 11.8076 18.1984 11.2658C18.2118 10.8172 18.5 10.3764 18.6709 9.93387C18.8348 9.50969 19.0076 9.08917 19.1697 8.66431C19.2459 8.46481 19.3061 8.25892 19.3735 8.05593C18.6381 8.81473 18.0129 9.62076 17.4056 10.4407C17.1804 10.7447 16.9813 10.818 16.6317 10.6044C15.6831 10.0248 14.6637 10.01 13.6047 10.2488C13.1558 10.3501 12.8016 10.9842 12.3183 10.6329C11.939 10.3571 11.6938 9.88456 11.3957 9.49397C11.1454 9.16594 10.9082 8.82742 10.6587 8.49868C10.536 8.33695 10.422 8.15716 10.1156 8.04495C10.491 9.01477 10.8057 9.90498 11.1812 10.7672C11.3923 11.2519 11.3438 11.5262 10.8745 11.8209C9.75611 12.5231 9.2048 13.6175 9.1287 14.9393C9.1023 15.3977 9.00267 15.6022 8.527 15.6554C7.41319 15.78 6.30595 15.9666 5.19606 16.1281C6.36548 16.3778 7.52646 16.5563 8.69116 16.7038C9.0144 16.7447 9.10851 16.8883 9.11726 17.1997C9.15942 18.7004 9.79177 19.8659 11.0525 20.6416C11.371 20.8375 11.4071 21.0358 11.2636 21.3713C10.9374 22.1339 10.6478 22.913 10.3092 23.7628ZM9.20596 23.3977C9.42221 22.8456 9.62495 22.2873 9.85999 21.7437C9.99169 21.4391 9.93659 21.2476 9.68914 21.0281C8.85859 20.2913 8.33206 19.3561 8.12301 18.249C8.06701 17.9524 7.95818 17.7844 7.65816 17.744C6.70171 17.6151 5.74577 17.4814 4.79168 17.3355C4.58482 17.3039 4.44727 17.3486 4.38124 17.552C4.07773 18.4868 3.7461 19.411 3.35206 20.314C4.24169 20.6118 4.59043 20.5006 5.0233 19.8143C5.54569 18.986 6.58892 18.6219 7.46581 18.9617C8.41543 19.3298 8.92769 20.2565 8.74773 21.2808C8.57881 22.2424 7.76595 22.9503 6.78457 22.9905C6.03307 23.0213 5.68757 23.359 5.55062 24.2108C6.16005 24.3042 6.7729 24.378 7.37787 24.4948C8.67442 24.7452 8.67275 24.7543 9.20596 23.3977ZM23.0105 22.9959C22.9138 22.9955 22.817 22.9983 22.7205 22.9943C21.7452 22.9534 20.9599 22.2537 20.7775 21.2646C20.5867 20.2302 21.0624 19.3504 22.0138 18.9781C22.9206 18.6232 23.9466 18.9546 24.4763 19.7734C24.9494 20.5048 25.1521 20.5777 26.1418 20.3421C25.7969 19.3971 25.4558 18.4565 25.1095 17.5179C25.0333 17.3113 24.8793 17.3029 24.6819 17.3339C23.7469 17.4805 22.8096 17.6118 21.8725 17.7432C21.6175 17.7789 21.4547 17.872 21.4079 18.1714C21.2263 19.332 20.7052 20.3058 19.8141 21.0547C19.6101 21.2262 19.522 21.389 19.636 21.6643C20.014 22.5771 20.3732 23.4981 20.7403 24.4157C20.812 24.595 20.925 24.7325 21.1323 24.6953C22.076 24.5261 23.0183 24.3492 23.9625 24.1748C23.8048 23.4729 23.5594 23.1463 23.0105 22.9959ZM5.83021 8.07833C5.6692 8.10272 5.5258 8.12092 5.57928 8.36643C5.70834 8.95883 6.12945 9.31505 6.75695 9.33461C7.7751 9.36636 8.58742 10.0735 8.74928 11.0691C8.92096 12.1249 8.46435 12.9628 7.50627 13.35C6.59079 13.7201 5.55684 13.367 5.02047 12.5013C4.60164 11.8253 4.17081 11.6954 3.35892 12.0333C3.75226 12.9133 4.07413 13.822 4.36958 14.7405C4.45942 15.0198 4.64936 15.0029 4.88005 14.9685C5.79655 14.832 6.715 14.7089 7.63342 14.5864C7.88381 14.5529 8.06927 14.479 8.11146 14.1745C8.27702 12.9793 8.87593 12.0293 9.74314 11.2468C9.95052 11.0597 10.0008 10.8832 9.89324 10.6239C9.53018 9.74839 9.16668 8.87256 8.83002 7.98615C8.70288 7.6514 8.49662 7.59018 8.19497 7.64688C7.43683 7.78937 6.67771 7.92635 5.83021 8.07833ZM21.8633 7.75609C21.7673 7.74513 21.6625 7.75591 21.5766 7.71966C21.0474 7.49644 20.7675 7.68751 20.5828 8.2328C20.3166 9.01864 19.9934 9.78503 19.6721 10.5498C19.5359 10.874 19.5876 11.0828 19.8527 11.3186C20.6984 12.0709 21.2305 13.0222 21.4091 14.1624C21.4558 14.4604 21.6153 14.5545 21.8741 14.5873C22.4489 14.6602 23.0208 14.7581 23.5962 14.8249C25.0459 14.9933 25.0432 14.9874 25.5575 13.5484C25.7458 13.0213 25.9528 12.5012 26.1656 11.9402C25.393 11.84 24.8094 11.761 24.3989 12.613C23.9976 13.4462 22.8433 13.6984 21.987 13.3417C21.0891 12.9677 20.6086 12.0736 20.7732 11.0829C20.9344 10.1127 21.7003 9.39307 22.6329 9.33573C23.5354 9.28023 23.6672 9.16655 24.0011 8.13486C23.3179 8.01564 22.6388 7.89713 21.8633 7.75609ZM17.7327 8.07463C18.0517 7.65155 18.3753 7.23198 18.6873 6.80353C18.7985 6.65077 18.9666 6.47937 18.8022 6.27492C18.1819 5.50367 17.5509 4.74159 16.9212 3.97276C16.2878 4.63503 16.1814 4.99891 16.4525 5.47727C16.9943 6.43305 16.8463 7.53364 16.0811 8.24013C15.3283 8.93517 14.3594 8.96782 13.543 8.32566C12.736 7.69087 12.4752 6.56408 13.0231 5.60333C13.3233 5.07699 13.1579 4.71358 12.9029 4.30084C12.7213 4.00683 12.5423 3.98795 12.321 4.27111C11.838 4.88898 11.3506 5.50371 10.8468 6.1036C10.6296 6.3622 10.6316 6.55902 10.8423 6.82554C11.3775 7.5023 11.9007 8.19042 12.3983 8.89653C12.6505 9.25426 12.8968 9.35496 13.3213 9.2003C14.035 8.9403 14.8351 8.74113 15.5297 9.0175C16.5319 9.4162 17.1528 9.16069 17.6114 8.23641C17.6287 8.20166 17.6575 8.17295 17.7327 8.07463ZM13.8509 23.2966C13.6086 23.2301 13.3587 23.1836 13.1262 23.0913C12.8932 22.9989 12.7275 23.0273 12.572 23.2359C11.9848 24.0235 11.3879 24.8034 10.7979 25.5888C10.7006 25.7183 10.6207 25.8757 10.7376 26.0251C11.3491 26.8062 11.9689 27.5803 12.5883 28.3598C13.2707 27.6799 13.3288 27.4012 12.976 26.6648C12.5336 25.7412 12.7535 24.613 13.4925 24.015C14.2727 23.3837 15.3184 23.3938 16.0504 24.0398C16.8108 24.7109 16.9983 25.8277 16.505 26.7464C16.1867 27.3391 16.3292 27.852 16.955 28.3151C17.5436 27.5873 18.1315 26.8563 18.7248 26.1298C18.8742 25.9468 18.8703 25.7806 18.7307 25.5965C18.1372 24.8137 17.5443 24.0303 16.9579 23.2418C16.8069 23.0388 16.6475 22.9813 16.4089 23.0816C15.6153 23.4153 14.7844 23.3843 13.8509 23.2966Z" fill="#05050A"/>
</svg>
