<svg width="93" height="101" viewBox="0 0 93 101" fill="none" xmlns="http://www.w3.org/2000/svg">
<path d="M84.8396 58.0228C85.2056 58.9283 85.538 59.6878 85.8372 60.4609C86.2217 61.4545 86.8376 61.8876 87.9521 61.9518C90.7754 62.1144 92.5468 63.8219 92.9438 66.5006C93.291 68.844 91.8676 71.2375 89.6073 72.1108C87.23 73.0294 85.0077 72.2339 83.4497 69.9067C82.723 68.8211 79.5985 68.1297 78.6379 68.8779C78.0937 69.3017 77.8505 69.9068 78.1989 70.5754C78.9787 72.0721 79.546 73.5737 81.7138 73.7621C84.8033 74.0307 86.3277 76.1292 86.2684 79.2443C86.2172 81.9327 84.5024 83.9082 81.7767 84.258C79.7499 84.5182 78.0473 83.7568 76.9946 81.9424C76.3522 80.8352 75.572 80.4998 74.3909 80.6026C71.2118 80.8793 68.1279 81.5863 65.106 82.6099C64.3732 82.8581 63.8461 83.4193 63.2994 83.945C61.6556 85.5255 60.2455 87.3199 58.8151 89.0974C57.634 90.5653 56.753 91.8559 57.9202 94.0025C59.0006 95.99 57.9266 98.6761 56.1595 99.9532C54.1468 101.408 51.7276 101.342 49.9348 99.7844C48.0908 98.1823 47.5388 95.6809 48.5106 93.3304C49.1434 91.7997 48.4882 89.1751 47.2527 88.2499C46.8621 87.9574 46.4448 87.9114 46.0168 88.0863C44.855 88.5609 43.7352 91.8281 44.3089 93.0328C45.4528 95.4352 45.0054 98.1692 43.2191 99.6919C41.2357 101.383 38.6789 101.436 36.6796 99.829C34.8931 98.3929 34.1016 95.5164 35.2526 93.4113C36.0304 91.9887 35.715 91.0472 34.8431 89.9872C34.2801 89.3029 33.7115 88.6116 33.2425 87.8594C29.7952 82.3299 24.3723 81.0672 18.5629 80.5947C17.4843 80.507 16.7393 80.7317 16.0908 81.7947C14.6378 84.1766 12.1646 84.8803 9.74813 83.8264C7.47632 82.8356 6.32353 80.5033 6.78247 77.8265C7.17892 75.5142 9.13771 73.9262 11.8005 73.7584C13.0387 73.6803 15.1235 71.1576 14.9753 69.896C14.9208 69.4325 14.6967 69.0519 14.2918 68.8064C13.1793 68.132 10.2647 68.847 9.50144 69.9813C8.01142 72.1958 5.60159 73.021 3.29529 72.1064C1.22103 71.2839 -0.255055 68.781 0.036828 66.5813C0.387501 63.9385 2.25999 62.0822 4.98244 61.9608C6.18463 61.9072 6.76397 61.3944 7.22729 60.3628C8.43374 57.6765 9.32011 54.8785 10.0235 52.0225C10.3145 50.841 10.2557 49.6031 9.87758 48.4146C9.23949 46.409 8.61389 44.3991 7.95753 42.3999C7.32501 40.4733 6.63769 38.9192 4.07338 38.8519C1.74081 38.7906 0.155538 36.4827 0.0153975 34.0477C-0.116713 31.7521 1.23539 29.6994 3.43655 28.8538C5.4959 28.0626 8.13275 28.6552 9.20451 30.6869C10.3459 32.8506 12.0749 32.2548 13.7144 32.3498C14.3431 32.3863 14.7471 31.9193 14.918 31.3203C15.2824 30.0431 13.2048 27.2639 11.8597 27.2004C8.81005 27.0562 6.88484 25.2798 6.7394 22.476C6.5786 19.3757 8.14219 17.2684 11.0987 16.7778C13.1273 16.4413 14.8393 17.1905 15.9004 18.9992C16.5828 20.1623 17.378 20.5251 18.6504 20.4107C21.7062 20.1357 24.669 19.4636 27.5797 18.5033C28.5625 18.1791 29.3047 17.4843 30.0135 16.7643C31.5666 15.1867 32.9927 13.4948 34.3372 11.722C35.416 10.2997 36.1373 9.07584 35.1312 7.09708C34.0347 4.94064 35.023 2.3499 36.9142 0.987846C38.7718 -0.349957 41.0911 -0.327309 42.8427 1.04575C44.7733 2.55899 45.6831 5.21192 44.528 7.37625C43.4609 9.37566 44.4455 10.6864 45.3515 12.0939C46.0071 13.1122 46.9684 13.1264 47.6256 12.0823C48.5398 10.6299 49.591 9.32614 48.4402 7.24453C47.2921 5.16788 48.2809 2.39752 50.0661 1.0688C52.0523 -0.40946 54.5656 -0.32666 56.4716 1.27984C58.1732 2.71415 58.8348 5.42878 57.7227 7.5582C57.0418 8.86218 57.1786 9.79644 58.0389 10.8353C59.2099 12.2494 60.3631 13.681 61.4744 15.1449C65.045 19.8483 70.2817 19.8674 75.3379 20.3957C76.1821 20.4839 76.464 19.7878 76.8589 19.1997C78.4173 16.8789 80.823 16.1308 83.232 17.1679C85.5314 18.1579 86.6773 20.4457 86.2282 23.1499C85.842 25.475 83.9502 27.0932 81.4517 27.2357C80.0479 27.3158 77.958 29.6707 78.0549 31.0757C78.0877 31.5501 78.312 31.9282 78.7091 32.1783C79.7622 32.8417 82.6527 32.1793 83.3867 31.1117C84.9984 28.7678 87.3617 27.9524 89.7275 28.9238C91.9069 29.8187 93.2627 32.1265 92.9572 34.4212C92.5927 37.1598 90.8139 38.8456 87.839 39.0539C86.8027 39.1265 86.2577 39.5649 85.8575 40.4632C84.6082 43.2682 83.6504 46.1817 82.9633 49.1734C82.3884 51.6769 83.5665 53.9409 84.1999 56.2654C84.3505 56.818 84.5917 57.3444 84.8396 58.0228ZM32.148 75.0299C32.0962 75.5353 31.5333 75.9736 31.955 76.7022C34.2415 74.2611 35.99 71.5321 37.9237 68.9631C38.6768 67.9626 39.2554 67.7504 40.385 68.4072C44.3878 70.735 48.4894 70.6895 52.4997 68.4377C53.6186 67.8094 54.2785 67.9101 54.9961 68.933C55.9799 70.3354 57.0331 71.6872 58.0786 73.0428C59.0242 74.2689 59.9992 75.4709 60.9613 76.6836C61.0911 76.5995 61.2209 76.5154 61.3507 76.4313C60.197 73.4197 59.1019 70.3822 57.862 67.4087C57.3408 66.1588 57.5274 65.4719 58.6681 64.7605C62.5996 62.3086 64.5301 58.601 64.687 53.9238C64.7247 52.7986 65.0835 52.2916 66.1914 52.2481C67.0569 52.2142 67.9178 52.0293 68.7786 51.8963C71.4899 51.4772 74.2002 51.051 76.9109 50.6276C73.4369 49.8322 70.0076 49.2232 66.5553 48.8247C65.116 48.6586 64.6973 48.1073 64.6725 46.6656C64.6111 43.0976 63.0838 40.177 60.6744 37.6403C59.6626 36.575 57.5212 36.4375 57.5734 34.6885C57.6166 33.2403 58.5457 31.8172 59.0964 30.3888C59.6244 29.0195 60.1815 27.662 60.704 26.2906C60.9493 25.6466 61.1435 24.9819 61.3608 24.3266C58.9905 26.7761 56.9757 29.3781 55.0184 32.025C54.2928 33.0062 53.6511 33.243 52.5245 32.5534C49.4674 30.6822 46.1819 30.6346 42.7689 31.4056C41.3223 31.7324 40.1807 33.7795 38.6232 32.6452C37.4008 31.7549 36.6103 30.2296 35.6499 28.9688C34.8432 27.9099 34.0786 26.8171 33.2746 25.7559C32.8791 25.2338 32.5118 24.6534 31.5243 24.2912C32.7342 27.4219 33.7482 30.2956 34.9584 33.079C35.6388 34.6437 35.4824 35.529 33.97 36.4802C30.3657 38.7471 28.5889 42.2799 28.3437 46.5467C28.2586 48.0267 27.9375 48.6868 26.4045 48.8586C22.8149 49.2607 19.2465 49.8632 15.6695 50.3845C19.4384 51.1905 23.1799 51.7667 26.9336 52.2427C27.9753 52.3748 28.2786 52.8383 28.3068 53.8437C28.4427 58.688 30.4806 62.4503 34.5438 64.9543C35.5702 65.5867 35.6866 66.2268 35.2241 67.3099C34.1728 69.7717 33.2393 72.2867 32.148 75.0299ZM28.5927 73.8514C29.2896 72.069 29.943 70.2667 30.7005 68.512C31.1249 67.5287 30.9473 66.9105 30.1498 66.2019C27.4732 63.8235 25.7763 60.8047 25.1025 57.2308C24.922 56.2734 24.5713 55.7312 23.6044 55.6006C20.5219 55.1845 17.4411 54.753 14.3663 54.282C13.6996 54.1799 13.2563 54.3243 13.0435 54.9808C12.0654 57.9984 10.9966 60.9819 9.72669 63.8969C12.5938 64.8582 13.7177 64.4991 15.1127 62.2837C16.7963 59.6099 20.1584 58.4345 22.9845 59.5316C26.0449 60.7196 27.6958 63.7112 27.1159 67.018C26.5715 70.122 23.9518 72.4071 20.789 72.5369C18.3671 72.6362 17.2536 73.7264 16.8122 76.4762C18.7763 76.7775 20.7514 77.0158 22.7011 77.3929C26.8796 78.2011 26.8742 78.2305 28.5927 73.8514ZM73.0821 72.5542C72.7704 72.553 72.4584 72.5621 72.1472 72.549C69.0043 72.4171 66.4734 70.1586 65.8855 66.9654C65.2707 63.6263 66.8037 60.7863 69.8697 59.5845C72.7922 58.4389 76.099 59.5086 77.8059 62.1516C79.3308 64.5129 79.9839 64.7482 83.1735 63.9876C82.0622 60.9372 80.9628 57.9008 79.8467 54.8709C79.601 54.2038 79.1047 54.1769 78.4685 54.2768C75.4553 54.7499 72.4347 55.1738 69.4144 55.598C68.5928 55.7134 68.068 56.014 67.917 56.9804C67.3318 60.727 65.6524 63.8704 62.7807 66.2879C62.1231 66.8414 61.8393 67.367 62.2068 68.256C63.425 71.2025 64.5826 74.1756 65.7655 77.1377C65.9966 77.7164 66.3608 78.1601 67.0291 78.0401C70.0702 77.4941 73.1071 76.923 76.1503 76.36C75.6418 74.0941 74.851 73.0397 73.0821 72.5542ZM17.7133 24.399C17.1944 24.4777 16.7322 24.5364 16.9046 25.329C17.3205 27.2413 18.6777 28.3912 20.7 28.4544C23.9813 28.5569 26.5992 30.8397 27.1209 34.0534C27.6742 37.4618 26.2026 40.1666 23.1149 41.4166C20.1645 42.611 16.8322 41.4714 15.1036 38.6768C13.7538 36.4947 12.3653 36.0751 9.74878 37.1658C11.0164 40.0067 12.0538 42.9402 13.0059 45.905C13.2955 46.8066 13.9076 46.7522 14.6511 46.6412C17.6048 46.2003 20.5648 45.8032 23.5247 45.4075C24.3316 45.2997 24.9293 45.061 25.0653 44.0778C25.5989 40.2196 27.529 37.1529 30.3239 34.6271C30.9922 34.023 31.1541 33.4534 30.8076 32.6164C29.6375 29.7901 28.4661 26.9628 27.3811 24.1014C26.9713 23.0208 26.3066 22.8232 25.3344 23.0062C22.8911 23.4662 20.4446 23.9084 17.7133 24.399ZM69.3849 23.3587C69.0754 23.3234 68.7377 23.3582 68.4608 23.2411C66.7554 22.5206 65.8533 23.1373 65.258 24.8976C64.4003 27.4344 63.3584 29.9083 62.323 32.3771C61.8841 33.4236 62.0506 34.0977 62.9049 34.8589C65.6305 37.2874 67.3455 40.3581 67.9212 44.039C68.0716 45.0008 68.5855 45.3047 69.4196 45.4106C71.2721 45.6459 73.1152 45.9619 74.9696 46.1776C79.6416 46.721 79.6332 46.7023 81.2904 42.0568C81.8974 40.3552 82.5645 38.6763 83.2503 36.8653C80.7605 36.542 78.8794 36.2869 77.5567 39.0373C76.2631 41.7271 72.5431 42.541 69.7834 41.3896C66.8896 40.1822 65.3411 37.296 65.8715 34.0981C66.3911 30.966 68.8595 28.6431 71.865 28.458C74.7737 28.2788 75.1985 27.9118 76.2744 24.5815C74.0726 24.1966 71.884 23.814 69.3849 23.3587ZM56.0727 24.387C57.1008 23.0213 58.1435 21.6669 59.149 20.2838C59.5076 19.7906 60.0492 19.2374 59.5193 18.5774C57.5205 16.0877 55.4868 13.6277 53.4574 11.1458C51.416 13.2836 51.073 14.4583 51.9469 16.0025C53.6929 19.0878 53.216 22.6407 50.7499 24.9213C48.3237 27.1649 45.201 27.2703 42.5701 25.1974C39.9694 23.1482 39.1288 19.5108 40.8947 16.4094C41.8621 14.7103 41.3291 13.5372 40.5072 12.2049C39.9218 11.2558 39.3449 11.1948 38.6317 12.1089C37.0753 14.1034 35.5045 16.0878 33.8809 18.0243C33.1809 18.8591 33.1871 19.4945 33.8663 20.3548C35.5911 22.5395 37.2772 24.7608 38.881 27.0402C39.6936 28.195 40.4874 28.5201 41.8557 28.0208C44.1557 27.1815 46.7342 26.5385 48.973 27.4307C52.2026 28.7177 54.2037 27.8929 55.6818 24.9093C55.7374 24.7971 55.8302 24.7044 56.0727 24.387ZM43.5623 73.525C42.7815 73.3102 41.9763 73.1603 41.2267 72.8624C40.4758 72.5639 39.9418 72.6557 39.4407 73.329C37.5484 75.8714 35.6248 78.3891 33.7233 80.9244C33.4097 81.3424 33.1521 81.8507 33.5289 82.3328C35.4994 84.8542 37.4972 87.3531 39.4932 89.8696C41.6926 87.6749 41.8797 86.775 40.7429 84.3979C39.3171 81.4165 40.0258 77.7743 42.4074 75.844C44.9218 73.8061 48.2919 73.8389 50.651 75.9242C53.1014 78.0904 53.706 81.6955 52.116 84.6612C51.0902 86.5746 51.5496 88.2302 53.5663 89.7253C55.4633 87.3759 57.3581 85.0161 59.2699 82.6709C59.7515 82.0802 59.7389 81.5437 59.289 80.9495C57.3762 78.4223 55.4654 75.8933 53.5755 73.348C53.0891 72.693 52.5754 72.5072 51.8062 72.8311C49.2488 73.9081 46.5709 73.8082 43.5623 73.525Z" fill="url(#paint0_linear_2216_2624)"/>
<defs>
<linearGradient id="paint0_linear_2216_2624" x1="46.5" y1="0" x2="46.5" y2="101" gradientUnits="userSpaceOnUse">
<stop stop-color="#FFA234"/>
<stop offset="1" stop-color="#AE23CA"/>
</linearGradient>
</defs>
</svg>
